<svg width="256" height="256" viewBox="0 0 256 256" fill="none" xmlns="http://www.w3.org/2000/svg">
  <path d="M128 256C198.692 256 256 198.692 256 128C256 57.3076 198.692 0 128 0C57.3076 0 0 57.3076 0 128C0 198.692 57.3076 256 128 256Z" fill="#010326"/>
  <path d="M67.917 80.802V96.867C67.917 97.3067 68.2735 97.6632 68.7132 97.6632H137.75C138.19 97.6632 138.546 98.0196 138.546 98.4593V115.32H155.407C155.847 115.32 156.203 115.677 156.203 116.117V185.153C156.203 185.593 156.56 185.95 157 185.95H173.065C173.504 185.95 173.861 185.593 173.861 185.153V80.802C173.861 80.3623 173.504 80.0059 173.065 80.0059H68.7132C68.2734 80.0059 67.917 80.3623 67.917 80.802Z" fill="#F9F9F9"/>
  <path d="M85.5743 116.117V132.182C85.5743 132.621 85.9308 132.978 86.3705 132.978H102.435C102.875 132.978 103.232 133.334 103.232 133.774V150.635H120.093C120.532 150.635 120.889 150.991 120.889 151.431V167.496C120.889 167.936 121.245 168.292 121.685 168.292H137.75C138.19 168.292 138.546 167.936 138.546 167.496V115.32H86.3705C85.9308 115.32 85.5743 115.677 85.5743 116.117Z" fill="#F9F9F9"/>
  <path d="M86.3705 168.292H102.435C102.875 168.292 103.232 167.936 103.232 167.496V150.635H86.3705C85.9308 150.635 85.5743 150.991 85.5743 151.431V167.496C85.5743 167.936 85.9308 168.292 86.3705 168.292Z" fill="#F9F9F9"/>
  <path d="M128 25.8649C141.791 25.8649 155.166 28.5644 167.754 33.8884C179.915 39.0323 190.838 46.3975 200.22 55.7796C209.602 65.1617 216.968 76.0851 222.112 88.2464C227.436 100.834 230.135 114.209 230.135 128C230.135 141.791 227.436 155.166 222.112 167.754C216.968 179.915 209.602 190.838 200.22 200.22C190.838 209.602 179.915 216.968 167.754 222.112C155.166 227.436 141.791 230.135 128 230.135C114.209 230.135 100.834 227.436 88.2464 222.112C76.0851 216.968 65.1617 209.602 55.7796 200.22C46.3975 190.838 39.0323 179.915 33.8884 167.754C28.5644 155.166 25.8649 141.791 25.8649 128C25.8649 114.209 28.5644 100.834 33.8884 88.2464C39.0323 76.0851 46.3975 65.1617 55.7796 55.7796C65.1617 46.3975 76.0851 39.0323 88.2464 33.8884C100.834 28.5644 114.209 25.8649 128 25.8649ZM128 19.1458C67.8814 19.1458 19.1458 67.8814 19.1458 128C19.1458 188.119 67.8814 236.854 128 236.854C188.119 236.854 236.854 188.118 236.854 128C236.854 67.8814 188.118 19.1458 128 19.1458Z" fill="#F9F9F9"/>
</svg>
